<?xml version="1.0" encoding="UTF-8"?>
<svg xmlns="http://www.w3.org/2000/svg" xmlns:xlink="http://www.w3.org/1999/xlink" version="1.1" viewBox="0 0 132.8 40">
  <defs>
    <style>
      .cls-1 {
        fill: none;
      }

      .cls-2 {
        fill: #3b3b3b;
        font-family: Helvetica-Bold, Helvetica;
        font-weight: 700;
      }

      .cls-2, .cls-3 {
        font-size: 22px;
      }

      .cls-2, .cls-3, .cls-4 {
        isolation: isolate;
      }

      .cls-3 {
        font-family: Aclonica-Regular, Aclonica;
      }

      .cls-3, .cls-5 {
        fill: #fff;
      }

      .cls-6 {
        fill: #ea3939;
      }

      .cls-7 {
        clip-path: url(#clippath-11);
      }

      .cls-8 {
        clip-path: url(#clippath-10);
      }

      .cls-9 {
        clip-path: url(#clippath-1);
      }

      .cls-10 {
        clip-path: url(#clippath-3);
      }

      .cls-11 {
        clip-path: url(#clippath-4);
      }

      .cls-12 {
        clip-path: url(#clippath-2);
      }

      .cls-13 {
        clip-path: url(#clippath-7);
      }

      .cls-14 {
        clip-path: url(#clippath-6);
      }

      .cls-15 {
        clip-path: url(#clippath-9);
      }

      .cls-16 {
        clip-path: url(#clippath-8);
      }

      .cls-17 {
        clip-path: url(#clippath-5);
      }

      .cls-18 {
        fill: #339af0;
      }

      .cls-19 {
        clip-path: url(#clippath);
      }
    </style>
    <clipPath id="clippath">
      <rect class="cls-1" x="208.1" y="-47.6" width="22.6" height="13.3"/>
    </clipPath>
    <clipPath id="clippath-1">
      <rect class="cls-1" x="209.4" y="-42.3" width="22" height="10.7"/>
    </clipPath>
    <clipPath id="clippath-2">
      <rect class="cls-1" x="208.1" y="-50.3" width="19.9" height="12"/>
    </clipPath>
    <clipPath id="clippath-3">
      <rect class="cls-1" x="212.1" y="-36.9" width="18.7" height="8.5"/>
    </clipPath>
    <clipPath id="clippath-4">
      <rect class="cls-1" x="2.7" y="-47.6" width="22.6" height="13.3"/>
    </clipPath>
    <clipPath id="clippath-5">
      <rect class="cls-1" x="4" y="-42.3" width="22" height="10.7"/>
    </clipPath>
    <clipPath id="clippath-6">
      <rect class="cls-1" x="2.7" y="-50.3" width="19.9" height="12"/>
    </clipPath>
    <clipPath id="clippath-7">
      <rect class="cls-1" x="6.7" y="-36.9" width="18.7" height="8.5"/>
    </clipPath>
    <clipPath id="clippath-8">
      <rect class="cls-1" x="2.5" y="12" width="22.6" height="13.3"/>
    </clipPath>
    <clipPath id="clippath-9">
      <rect class="cls-1" x="3.8" y="17.3" width="22" height="10.7"/>
    </clipPath>
    <clipPath id="clippath-10">
      <rect class="cls-1" x="2.5" y="9.3" width="19.9" height="12"/>
    </clipPath>
    <clipPath id="clippath-11">
      <rect class="cls-1" x="6.5" y="22.7" width="18.7" height="8.5"/>
    </clipPath>
  </defs>
  <!-- Generator: Adobe Illustrator 28.6.0, SVG Export Plug-In . SVG Version: 1.2.0 Build 709)  -->
  <g>
    <g id="Layer_1">
      <g id="Layer_1-2" data-name="Layer_1">
        <rect x="191.7" y="-138.8" width="198.4" height="198.4"/>
        <g class="cls-19">
          <path class="cls-5" d="M217.8-39.1h3.8c3.7,0,7-2.2,8.5-5.4-.3-.8-.7-1.5-1.2-2.2-.8,3.3-3.8,5.7-7.3,5.7h-3.8c-3.5,0-6.7,1.4-9,3.7.2.7.4,1.4.7,2,2.1-2.3,5-3.8,8.4-3.8h0Z"/>
        </g>
        <g class="cls-9">
          <path class="cls-5" d="M230.8-42.1c-2,2.9-5.4,4.8-9.2,4.8h-3.8c-3,0-5.7,1.4-7.4,3.6l1.2,1.5c1.4-2,3.6-3.2,6.1-3.2h3.8c3.7,0,7-1.5,9.3-4v-.8c0-.7,0-1.3-.2-2h.2,0Z"/>
        </g>
        <g class="cls-12">
          <path class="cls-5" d="M217.8-44.8c-3.4,0-6.5,1-9.2,2.8,0,.6-.2,1.3-.2,2s0,.3,0,.5c2.6-2.1,5.8-3.3,9.4-3.3h3.8c3.1,0,5.6-2.5,5.6-5.6-.6-.5-1.2-1-1.9-1.4v1.3c0,2.1-1.7,3.8-3.7,3.8h-3.8Z"/>
        </g>
        <path class="cls-5" d="M217.8-46.7h3.8c1,0,1.9-.9,1.9-1.9v-2.2c-1.2-.4-2.4-.7-3.7-.7-4.6,0-8.5,2.8-10.3,6.8,2.5-1.3,5.4-2,8.4-2h0Z"/>
        <g class="cls-10">
          <path class="cls-5" d="M221.6-33.4h-3.8c-2,0-3.7,1-4.7,2.6,1.8,1.4,4.1,2.2,6.6,2.2,4.9,0,9.1-3.2,10.6-7.6-2.5,1.8-5.5,2.9-8.7,2.9h0Z"/>
        </g>
        <g class="cls-4">
          <g class="cls-4">
            <text class="cls-3" transform="translate(238.1 -31.6)"><tspan x="0" y="0">PROTOCON</tspan></text>
          </g>
        </g>
        <rect class="cls-6" y="-59.6" width="171.8" height="40"/>
        <g class="cls-11">
          <path class="cls-5" d="M12.4-39.1h3.8c3.7,0,7-2.2,8.5-5.4-.3-.8-.7-1.5-1.2-2.2-.8,3.3-3.8,5.7-7.3,5.7h-3.8c-3.5,0-6.7,1.4-9,3.7.2.7.4,1.4.7,2,2.1-2.3,5-3.8,8.4-3.8h0Z"/>
        </g>
        <g class="cls-17">
          <path class="cls-5" d="M25.4-42.1c-2,2.9-5.4,4.8-9.2,4.8h-3.8c-3,0-5.7,1.4-7.4,3.6l1.2,1.5c1.4-2,3.6-3.2,6.1-3.2h3.8c3.7,0,7-1.5,9.3-4v-.8c0-.7,0-1.3-.2-2h.2,0Z"/>
        </g>
        <g class="cls-14">
          <path class="cls-5" d="M12.4-44.8c-3.4,0-6.5,1-9.2,2.8,0,.6-.2,1.3-.2,2s0,.3,0,.5c2.6-2.1,5.8-3.3,9.4-3.3h3.8c3.1,0,5.6-2.5,5.6-5.6-.6-.5-1.2-1-1.9-1.4v1.3c0,2.1-1.7,3.8-3.7,3.8h-3.8,0Z"/>
        </g>
        <path class="cls-5" d="M12.4-46.7h3.8c1,0,1.9-.9,1.9-1.9v-2.2c-1.2-.4-2.4-.7-3.7-.7-4.6,0-8.5,2.8-10.3,6.8,2.5-1.3,5.4-2,8.4-2h0Z"/>
        <g class="cls-13">
          <path class="cls-5" d="M16.2-33.4h-3.8c-2,0-3.7,1-4.7,2.6,1.8,1.4,4.1,2.2,6.6,2.2,4.9,0,9.1-3.2,10.6-7.6-2.5,1.8-5.5,2.9-8.7,2.9h0Z"/>
        </g>
        <g class="cls-4">
          <g class="cls-4">
            <text class="cls-3" transform="translate(32.7 -31.6)"><tspan x="0" y="0">PROTOCON</tspan></text>
          </g>
        </g>
        <g class="cls-16">
          <path class="cls-18" d="M12.2,20.5h3.8c3.7,0,7-2.2,8.5-5.4-.3-.8-.7-1.5-1.2-2.2-.8,3.3-3.8,5.7-7.3,5.7h-3.8c-3.5,0-6.7,1.4-9,3.7.2.7.4,1.4.7,2,2.1-2.3,5-3.8,8.4-3.8h0Z"/>
        </g>
        <g class="cls-15">
          <path class="cls-18" d="M25.2,17.5c-2,2.9-5.4,4.8-9.2,4.8h-3.8c-3,0-5.7,1.4-7.4,3.6l1.2,1.5c1.4-2,3.6-3.2,6.1-3.2h3.8c3.7,0,7-1.5,9.3-4v-.8c0-.7,0-1.3-.2-2h.2Z"/>
        </g>
        <g class="cls-8">
          <path class="cls-18" d="M12.2,14.8c-3.4,0-6.5,1-9.2,2.8,0,.6-.2,1.3-.2,2s0,.3,0,.5c2.6-2.1,5.8-3.3,9.4-3.3h3.8c3.1,0,5.6-2.5,5.6-5.6-.6-.5-1.2-1-1.9-1.4v1.3c0,2.1-1.7,3.8-3.7,3.8h-3.8Z"/>
        </g>
        <path class="cls-18" d="M12.2,12.9h3.8c1,0,1.9-.9,1.9-1.9v-2.2c-1.2-.4-2.4-.7-3.7-.7-4.6,0-8.5,2.8-10.3,6.8,2.5-1.3,5.4-2,8.4-2h0Z"/>
        <g class="cls-7">
          <path class="cls-18" d="M16,26.2h-3.8c-2,0-3.7,1-4.7,2.6,1.8,1.4,4.1,2.2,6.6,2.2,4.9,0,9.1-3.2,10.6-7.6-2.5,1.8-5.5,2.9-8.7,2.9h0Z"/>
        </g>
        <g class="cls-4">
          <g class="cls-4">
            <text class="cls-2" transform="translate(32.5 27)"><tspan x="0" y="0">Protocon</tspan></text>
          </g>
        </g>
      </g>
    </g>
  </g>
</svg>